# xmcd CD database file
#
# Track frame offsets:
#	150
#	14714
#	35696
#	51685
#	78807
#	94923
#	105616
#	127328
#
# Disc length: 1933 seconds
#
# Revision: 0
# Processed by: cddbd v1.5.2PL0 Copyright (c) Steve Scherf et al.
# Submitted via: CDex 1.70beta2
#
DISCID=71078b08
DTITLE=BackStreet Crawl - One Take
DYEAR=2007
DGENRE=Blues
TTITLE0=Shake 'em All Down
TTITLE1=Low Down Dirty Work
TTITLE2=No Fightin'
TTITLE3=Rollin' and Tumblin'
TTITLE4=Taildragger
TTITLE5=I'm Gone
TTITLE6=Struggle
TTITLE7=I'm Ready
EXTD=YEAR: 2007
EXTT0=
EXTT1=
EXTT2=
EXTT3=
EXTT4=
EXTT5=
EXTT6=
EXTT7=
PLAYORDER=
